<?xml version="1.0" encoding="UTF-8"?>
<svg version="1.1" xmlns="http://www.w3.org/2000/svg" width="448" height="447">
<path d="M0 0 C147.84 0 295.68 0 448 0 C448 147.51 448 295.02 448 447 C300.16 447 152.32 447 0 447 C0 299.49 0 151.98 0 0 Z " fill="#FEFEFD" transform="translate(0,0)"/>
<path d="M0 0 C147.84 0 295.68 0 448 0 C448 147.51 448 295.02 448 447 C300.16 447 152.32 447 0 447 C0 299.49 0 151.98 0 0 Z M47 53 C38.01001685 64.11569345 31.90417384 76.30676105 31.85282898 90.86048889 C31.84915229 91.53824747 31.8454756 92.21600605 31.8416875 92.91430277 C31.83070084 95.17863476 31.82681536 97.44292079 31.82299805 99.70727539 C31.81672949 101.33384342 31.81008234 102.96041004 31.80308533 104.5869751 C31.78208509 109.92385875 31.7716851 115.26074255 31.76171875 120.59765625 C31.75766936 122.43894401 31.75355238 124.28023163 31.74936867 126.12151909 C31.73032401 134.77555822 31.71609278 143.42958888 31.7077567 152.08364493 C31.69799378 162.05285447 31.67169592 172.02184142 31.63125581 181.99097258 C31.60102769 189.70924564 31.5862814 197.42745515 31.58297569 205.14578623 C31.5806324 209.74940693 31.57176666 214.35278964 31.54651451 218.95634651 C31.52311195 223.29272412 31.5190491 227.6287091 31.52927589 231.96513367 C31.52976845 233.54847971 31.52353142 235.13184588 31.50971985 236.71513176 C31.35603618 255.3918312 37.42375767 271.04488407 50.5390625 284.6328125 C62.15847916 295.80958472 76.23369076 301.35171992 92.27148438 301.22705078 C93.26751678 301.22734283 94.26354919 301.22763489 95.2897644 301.22793579 C98.5578505 301.22655065 101.82570409 301.2110279 105.09375 301.1953125 C107.36918005 301.19157947 109.64461171 301.18873387 111.92004395 301.18673706 C117.89095546 301.17912345 123.86176873 301.15949448 129.8326416 301.1373291 C135.93268505 301.11682168 142.03274447 301.10772489 148.1328125 301.09765625 C160.08858469 301.07624643 172.04428415 301.04213796 184 301 C184.29567871 301.76570313 184.59135742 302.53140625 184.89599609 303.3203125 C186.18370793 306.44590407 187.82819586 309.13656711 189.625 312 C190.35034956 313.16270481 191.07560755 314.32546675 191.80078125 315.48828125 C192.16896973 316.07561035 192.5371582 316.66293945 192.91650391 317.26806641 C194.56256494 319.89924194 196.18720347 322.54346091 197.8125 325.1875 C198.46605469 326.24582031 199.11960938 327.30414063 199.79296875 328.39453125 C201.46229498 331.10882638 203.1034827 333.8389989 204.73828125 336.57421875 C205.21612061 337.36868408 205.69395996 338.16314941 206.1862793 338.98168945 C207.11885257 340.53302422 208.04642299 342.08738181 208.96801758 343.64526367 C213.78078698 351.99462442 213.78078698 351.99462442 221 358 C225.29455383 358.48801748 227.87026352 357.91312798 231.41650391 355.42504883 C234.60633849 352.55439442 236.6275158 348.8409439 238.8125 345.1875 C239.33384521 344.33873291 239.85519043 343.48996582 240.39233398 342.61547852 C241.94190127 340.08498594 243.47337125 337.54438125 245 335 C245.79668014 333.68217385 246.59353707 332.36445454 247.390625 331.046875 C247.72959714 330.48166767 248.06856928 329.91646034 248.4178133 329.33412552 C249.48018856 327.5738814 250.56184586 325.82531408 251.64506531 324.07781982 C253.34273616 321.25684278 254.7279123 318.41760839 256.03718567 315.39825439 C261.57077861 303.49794742 261.57077861 303.49794742 267.29259872 300.99855042 C274.0567608 299.45407276 280.94426107 299.94037337 287.82421875 300.234375 C290.05694587 300.26080177 292.28979429 300.27832587 294.5226593 300.28741455 C300.38707668 300.33098999 306.24416889 300.47682029 312.10601807 300.65020752 C321.46475945 300.91097444 330.826136 301.01970633 340.18772316 301.12055206 C343.43289162 301.1706579 346.67405122 301.26682764 349.91789246 301.37054443 C369.72500877 301.84433423 385.89300225 296.40139742 400.61328125 282.60546875 C410.58113926 271.72402637 417.08534443 256.97106288 417.15390015 242.19093323 C417.1582824 241.51866933 417.16266465 240.84640544 417.1671797 240.15376991 C417.18050141 237.90793023 417.18673166 235.66212973 417.19287109 233.41625977 C417.20077756 231.80278855 417.20904684 230.18931908 417.21765137 228.57585144 C417.2438177 223.28105342 417.25917782 217.98624773 417.2734375 212.69140625 C417.27880018 210.86378411 417.2841777 209.03616202 417.28956985 207.20853996 C417.3111944 199.60022573 417.32992701 191.99191356 417.34119225 184.38357639 C417.35740457 173.50807496 417.39052106 162.63293227 417.44759309 151.75756603 C417.48641621 144.09616339 417.50583976 136.43485618 417.51111281 128.77335781 C417.51475055 124.20538099 417.526602 119.63778727 417.55921555 115.06991768 C417.58951327 110.76466308 417.59553166 106.46001901 417.58383179 102.15468025 C417.58361282 100.58506482 417.59176881 99.01541924 417.60948563 97.44590378 C417.72104451 86.9830297 416.14701339 78.62886747 412 69 C411.67816427 68.20811059 411.35632854 67.41622118 411.02474022 66.60033512 C407.19517587 57.45407261 398.65855708 50.01854284 391 44 C390.43410156 43.55011719 389.86820312 43.10023437 389.28515625 42.63671875 C374.47292211 32.16767799 356.47830014 33.28778512 339.24365234 33.36889648 C336.45614378 33.36650787 333.66867222 33.35665166 330.88117981 33.34721375 C324.1301087 33.32894387 317.3793292 33.33727701 310.62826751 33.35530197 C305.13723475 33.36939051 299.64628057 33.37320742 294.15523148 33.3698597 C293.37046348 33.36938225 292.58569549 33.36890481 291.77714664 33.3684129 C290.18238641 33.36738646 288.58762619 33.3663311 286.99286599 33.36524714 C272.92747771 33.35670193 258.86222925 33.37328521 244.796875 33.40307617 C231.17865123 33.43191929 217.56062876 33.43898906 203.94238281 33.42358398 C189.07519287 33.40678888 174.20809826 33.40282042 159.34090579 33.42029434 C157.75298287 33.42213854 156.16505994 33.42397327 154.57713699 33.42579842 C153.79605534 33.42671051 153.01497369 33.4276226 152.21022289 33.42856232 C146.73080366 33.43414633 141.25143129 33.43088068 135.77201462 33.42425346 C129.08740328 33.41648873 122.40298941 33.42338541 115.71841763 33.4484285 C112.31395397 33.46085029 108.9100495 33.46498303 105.50553703 33.45588684 C82.92715566 33.40253221 63.25139367 35.33799712 47 53 Z " fill="#11B921" transform="translate(0,0)"/>
<path d="M0 0 C2.82375671 1.47760826 5.46168073 3.0889615 7.875 5.1875 C8.205 3.5375 8.535 1.8875 8.875 0.1875 C16.465 0.1875 24.055 0.1875 31.875 0.1875 C31.96587149 9.59409711 32.03904201 19.00039608 32.08224869 28.40733528 C32.10300025 32.77677018 32.1310862 37.14588561 32.17675781 41.51513672 C32.22066486 45.74270581 32.2442302 49.96997034 32.25450897 54.19775009 C32.26182083 55.79947571 32.27609554 57.4011873 32.29792023 59.00278091 C32.45519475 71.03824624 32.09367443 83.25439414 24.375 93.1875 C19.16633506 98.44521075 10.56234747 103.84788056 2.97387695 104.30102539 C2.27738037 104.29578857 1.58088379 104.29055176 0.86328125 104.28515625 C-0.16091919 104.28140991 -0.16091919 104.28140991 -1.20581055 104.27758789 C-2.06601807 104.26848389 -2.92622559 104.25937988 -3.8125 104.25 C-6.555625 104.229375 -9.29875 104.20875 -12.125 104.1875 C-12.125 97.2575 -12.125 90.3275 -12.125 83.1875 C-10.43375 83.105 -8.7425 83.0225 -7 82.9375 C-2.01465191 82.46972312 1.09912203 81.68018712 4.875 78.1875 C8.30266559 73.22329466 8.53917477 68.04707131 8.875 62.1875 C8.28332031 62.60902344 7.69164062 63.03054687 7.08203125 63.46484375 C6.29183594 64.01269531 5.50164062 64.56054688 4.6875 65.125 C3.91019531 65.67027344 3.13289063 66.21554688 2.33203125 66.77734375 C-4.69515589 70.81043526 -15.96756641 70.15356794 -23.7734375 68.69140625 C-28.26108438 67.16973288 -31.07126911 64.72339893 -34.125 61.1875 C-34.6303125 60.68347656 -35.135625 60.17945313 -35.65625 59.66015625 C-39.60507793 55.54679382 -41.20759104 51.74098322 -42.58203125 46.2265625 C-42.9369706 44.20841412 -42.9369706 44.20841412 -44.125 43.1875 C-44.28040479 40.17503783 -44.35687153 37.2013577 -44.375 34.1875 C-44.395625 33.36121094 -44.41625 32.53492188 -44.4375 31.68359375 C-44.49493918 22.50768406 -42.06573988 15.36168411 -36.22265625 8.265625 C-26.78780229 -1.08138116 -12.57488218 -5.45190075 0 0 Z " fill="#F16F33" transform="translate(343.125,141.8125)"/>
<path d="M0 0 C7.59 0 15.18 0 23 0 C23 11.88 23 23.76 23 36 C26.63 33.69 30.26 31.38 34 29 C41.30677519 26.56440827 50.6251302 26.81399243 57.5625 30.1875 C59.0689956 31.08042289 60.55215731 32.01481381 62 33 C62.87398437 33.57621094 62.87398437 33.57621094 63.765625 34.1640625 C70.73716042 39.3398994 74.63523697 47.59983062 76 56 C76.93523799 67.34755429 77.29538066 79.06994649 69.8125 88.3125 C62.50198333 95.89830809 53.46172035 100.05270318 42.875 100.3125 C36.53196894 100.06394863 31.20084087 99.53190778 26.5 94.875 C25.675 93.92625 24.85 92.9775 24 92 C23.67 93.98 23.34 95.96 23 98 C15.41 98 7.82 98 0 98 C0 65.66 0 33.32 0 0 Z " fill="#F16E31" transform="translate(74,112)"/>
<path d="M0 0 C0.72574219 -0.01224609 1.45148438 -0.02449219 2.19921875 -0.03710938 C12.70826324 -0.06520842 22.05832878 3.30349498 30.08984375 10.1953125 C38.10349125 18.52234286 40.4085406 27.55816746 40.2890625 38.83764648 C39.89240834 47.71575833 37.10879665 55.02681015 31.0625 61.625 C19.56020088 72.0246351 5.67830708 72.9409972 -9.09619141 72.33105469 C-18.68320834 71.69206512 -25.75752927 67.29793067 -32.0390625 60.15234375 C-38.37987951 51.54694924 -40.435612 40.71573458 -39.25 30.1875 C-38.52204673 27.04789201 -37.49971785 24.15411994 -36.25 21.1875 C-35.858125 20.176875 -35.46625 19.16625 -35.0625 18.125 C-29.3181285 8.81515653 -20.74922637 3.63444093 -10.3046875 0.62744141 C-6.90216745 -0.10109247 -3.46384083 0.00301204 0 0 Z " fill="#F16F33" transform="translate(247.25,139.8125)"/>
<path d="M0 0 C9.36841771 0 15.79924758 1.2261375 23.1484375 7.140625 C31.55962941 15.58730717 34.30854549 26.35416488 34.34801483 37.89865303 C34.33965314 40.21516136 34.3165748 42.5312573 34.29296875 44.84765625 C34.28736428 46.47146714 34.28309821 48.09528315 34.28010559 49.71910095 C34.26872373 53.96554903 34.23931504 58.21168279 34.20599365 62.45800781 C34.17514809 66.8020401 34.16156948 71.14612383 34.14648438 75.49023438 C34.11443791 83.99364896 34.06172557 92.49674901 34 101 C26.41 101 18.82 101 11 101 C10.98598145 98.07169312 10.98598145 98.07169312 10.97167969 95.08422852 C10.93603862 88.60606091 10.8821689 82.12824131 10.81609726 75.65031528 C10.77672824 71.72592657 10.74448844 67.80175867 10.72900391 63.87719727 C10.71376688 60.08380762 10.67919881 56.29102549 10.63169098 52.49790764 C10.61694923 51.05682621 10.60896315 49.615658 10.60811615 48.17450142 C10.60811449 34.98476976 10.60811449 34.98476976 4 24 C2.68 23.67 1.36 23.34 0 23 C0 15.41 0 7.82 0 0 Z " fill="#F17034" transform="translate(158,110)"/>
<path d="M0 0 C4.02359317 2.24638771 6.46915161 5.20372742 9 9 C9.72802098 13.9183743 9.54486864 17.91026273 7.3125 22.375 C3.40405019 26.8116187 0.22267027 29.81477748 -5.75 30.3125 C-11.31809822 30.23180292 -14.37149578 27.54047696 -18.3125 23.8125 C-20.64569183 19.92384695 -21.19341572 16.51045456 -21 12 C-19.45132808 6.75172294 -17.54275781 4.0285052 -13 1 C-9.00289869 -0.99855065 -4.33384651 -0.64470444 0 0 Z " fill="#FEFBF9" transform="translate(118,162)"/>
<path d="M0 0 C4.34468141 2.1723407 7.60032162 4.75441518 10 9 C10.66610287 13.53548694 10.58429396 17.53926511 8.875 21.8125 C4.83681104 26.52372046 1.07385746 29.71001345 -5.3125 30.3125 C-10.37120804 29.88379593 -12.9944961 28.08466853 -16.484375 24.45703125 C-19.3932165 20.8863466 -20.81355646 17.83158625 -20.48828125 13.0546875 C-19.31780266 8.1293136 -16.49788688 4.36949658 -12.8125 1 C-8.50941726 -0.52998498 -4.50944366 -0.65144451 0 0 Z " fill="#FEFBF9" transform="translate(252,162)"/>
<path d="M0 0 C3.28500672 2.23977731 5.9870261 4.28153404 7.75 7.875 C8.68722348 12.88710818 8.34526978 16.68446044 6.0625 21.25 C1.96013979 25.90673322 -1.27039326 28.59390502 -7.5625 29.1875 C-12.62120804 28.75879593 -15.2444961 26.95966853 -18.734375 23.33203125 C-21.72992725 19.65490672 -23.00997509 16.62897693 -22.66796875 11.859375 C-21.62751295 6.91964092 -19.25671597 3.78806797 -15.5625 0.4375 C-10.16711043 -2.10749508 -5.59300528 -1.93604029 0 0 Z " fill="#FEFBF9" transform="translate(345.25,163.125)"/>
<path d="M0 0 C1.59648868 2.39473302 2.91868288 4.71162202 4.25 7.25 C8.31613849 14.5619157 12.49707332 19.24853666 20 23 C21.32 23.66 22.64 24.32 24 25 C16.08 25 8.16 25 0 25 C0 16.75 0 8.5 0 0 Z " fill="#19291B" transform="translate(0,422)"/>
<path d="M0 0 C0.33 0 0.66 0 1 0 C1 7.92 1 15.84 1 24 C-6.92 24 -14.84 24 -23 24 C-20.68330248 22.45553499 -18.75183254 21.41830998 -16.25 20.3125 C-7.32441654 15.82514244 -3.56582367 9.08709902 0 0 Z " fill="#192B1A" transform="translate(447,423)"/>
<path d="M0 0 C7.59 0 15.18 0 23 0 C21.33245458 1.11169695 19.65617302 2.21153546 17.94921875 3.26171875 C9.26604934 8.73556475 4.68729619 14.43471988 1 24 C0.67 24 0.34 24 0 24 C0 16.08 0 8.16 0 0 Z " fill="#272B27" transform="translate(0,0)"/>
<path d="M0 0 C7.92 0 15.84 0 24 0 C24 7.92 24 15.84 24 24 C23.34 22.68 22.68 21.36 22 20 C16.90741414 10.42672812 10.13753272 4.77810826 0 1 C0 0.67 0 0.34 0 0 Z " fill="#262E27" transform="translate(424,0)"/>
<path d="M0 0 C31.02 0 62.04 0 94 0 C94 0.33 94 0.66 94 1 C92.28444916 1.00879936 92.28444916 1.00879936 90.53424072 1.01777649 C79.76312977 1.07495548 68.99222165 1.14769183 58.22131729 1.23571491 C52.68369243 1.28046855 47.146142 1.31971371 41.60839844 1.34643555 C36.26552945 1.37241862 30.92294611 1.41278567 25.5802536 1.46318626 C23.54052021 1.4798888 21.50073738 1.49138193 19.46094513 1.49761391 C16.60679583 1.50721812 13.75338291 1.53523332 10.89941406 1.56762695 C10.05352722 1.56619186 9.20764038 1.56475677 8.33612061 1.5632782 C3.9851639 1.63325367 1.13153689 1.8051506 -2 5 C-1.34 3.35 -0.68 1.7 0 0 Z " fill="#37C543" transform="translate(265,301)"/>
<path d="M0 0 C0.66 0.33 1.32 0.66 2 1 C-2.62 5.62 -7.24 10.24 -12 15 C-12 10.09687565 -8.29800369 7.38658643 -5 4 C-3.37458956 2.61667196 -1.72614587 1.25537882 0 0 Z " fill="#D4F3D6" transform="translate(56,45)"/>
</svg>
